<svg width="30" height="30" viewBox="0 0 30 30" fill="none" xmlns="http://www.w3.org/2000/svg">
<g clip-path="url(#clip0_29_986)">
<path d="M24.5275 3.42418C24.5275 2.72065 24.5258 2.07684 24.5288 1.43303C24.5294 1.28479 24.529 1.13298 24.5591 0.989C24.6266 0.66603 24.9074 0.449552 25.2238 0.454749C25.5321 0.459776 25.7925 0.665604 25.8661 0.977329C25.8927 1.0897 25.8991 1.20897 25.8994 1.32509C25.9017 2.48552 25.9023 3.64586 25.9001 4.80628C25.899 5.43101 25.6505 5.68122 25.0335 5.68191C23.8412 5.68327 22.6489 5.68642 21.4565 5.68037C20.8819 5.67748 20.5323 5.20184 20.7455 4.72688C20.8728 4.4431 21.1063 4.32 21.4103 4.3194C21.9426 4.31829 22.4749 4.31906 23.0072 4.3171C23.1102 4.31676 23.2131 4.30756 23.3518 4.225C22.8613 3.90203 22.3843 3.55615 21.8783 3.25959C13.8687 -1.43562 3.55513 3.09133 1.67269 12.1861C0.713238 16.822 1.91481 20.9296 5.13701 24.4234C5.21641 24.5094 5.30374 24.5887 5.37777 24.679C5.62228 24.9773 5.60618 25.3832 5.34489 25.6317C5.07849 25.8849 4.66504 25.899 4.39941 25.6087C3.88296 25.0441 3.35535 24.4824 2.90383 23.867C0.938916 21.1897 -0.0078432 18.1733 7.98287e-05 14.8569C0.0143072 8.84805 3.86149 3.19978 9.47943 1.08987C14.7835 -0.902134 19.7329 -0.152087 24.274 3.24638C24.3387 3.29477 24.4062 3.33933 24.5275 3.42418Z" fill="#009DD9"/>
<path d="M5.96348 17.3946C6.73755 17.3946 7.51162 17.3943 8.28561 17.3947C8.90761 17.395 9.24047 17.6386 9.23493 18.088C9.22948 18.5362 8.90207 18.7679 8.27198 18.7681C7.16531 18.7685 6.05864 18.7702 4.95197 18.7674C4.28959 18.7658 4.02302 18.4491 4.11477 17.7976C4.1831 17.3125 4.39983 16.8917 4.75841 16.5815C5.27128 16.1378 5.8293 15.7463 6.36721 15.3314C6.72034 15.059 7.09417 14.8085 7.4191 14.5055C7.88801 14.0684 7.98513 13.5451 7.73066 13.1315C7.47891 12.7224 6.85444 12.5245 6.30485 12.6825C5.88263 12.8039 5.58445 13.072 5.37522 13.4552C5.21394 13.7505 4.95172 13.87 4.62287 13.802C4.31822 13.7389 4.13445 13.5322 4.10702 13.2291C4.09356 13.0805 4.13735 12.9092 4.2055 12.7735C4.90222 11.3878 6.72784 10.8486 8.07178 11.623C9.20596 12.2765 9.56812 13.6935 8.89126 14.837C8.56385 15.3903 8.08081 15.7903 7.56717 16.1562C7.02397 16.5431 6.47405 16.9206 5.92702 17.3023C5.9392 17.3331 5.9513 17.3639 5.96348 17.3946Z" fill="#009DD9"/>
<path d="M13.0754 16.5481C12.1756 16.5481 11.3159 16.5426 10.4564 16.5509C10.1207 16.5542 9.84502 16.4693 9.69185 16.1475C9.54276 15.8343 9.66245 15.5763 9.86223 15.3281C10.9623 13.9616 12.0578 12.5915 13.1562 11.2238C13.409 10.9091 13.681 10.816 13.9905 10.9287C14.283 11.0352 14.4306 11.2721 14.4318 11.6639C14.4347 12.706 14.4329 13.7482 14.433 14.7905C14.433 14.9059 14.433 15.0213 14.433 15.1928C14.6332 15.1928 14.809 15.186 14.9842 15.1941C15.391 15.213 15.6815 15.5055 15.6735 15.8797C15.6655 16.2452 15.3828 16.5254 14.9918 16.5456C14.8227 16.5543 14.6528 16.547 14.433 16.547C14.433 16.8254 14.433 17.0864 14.433 17.3473C14.433 17.677 14.4353 18.0067 14.4323 18.3363C14.4277 18.8432 14.156 19.1636 13.7435 19.1537C13.338 19.144 13.0779 18.8312 13.0759 18.3435C13.0736 17.7599 13.0754 17.1762 13.0754 16.5481ZM13.0553 15.1731C13.0553 14.6284 13.0553 14.114 13.0553 13.5304C12.6005 14.0985 12.1878 14.6141 11.7403 15.1731C12.2157 15.1731 12.6239 15.1731 13.0553 15.1731Z" fill="#009DD9"/>
<path d="M24.1754 12.6351C23.4633 12.6351 22.7947 12.6351 22.1261 12.6351C22.0304 12.6351 21.9344 12.6383 21.8388 12.634C21.3831 12.6137 21.084 12.3306 21.094 11.9314C21.1037 11.5441 21.3961 11.268 21.8401 11.2648C22.9466 11.2567 24.0534 11.253 25.1598 11.266C25.745 11.2728 26.0364 11.7338 25.8096 12.2818C24.981 14.284 24.1467 16.2838 23.3089 18.2821C23.1323 18.7035 22.7498 18.8665 22.381 18.7019C22.026 18.5437 21.8883 18.1675 22.0578 17.758C22.7157 16.168 23.3804 14.5809 24.0418 12.9923C24.0853 12.8875 24.1214 12.7798 24.1754 12.6351Z" fill="#009DD9"/>
<path d="M16.826 18.7277C16.9778 17.958 17.1408 17.1238 17.3071 16.2902C17.6439 14.6022 17.9829 12.9147 18.32 11.2268C18.4231 10.7108 18.7197 10.4457 19.1246 10.5121C19.5311 10.5789 19.7686 10.9302 19.6833 11.361C19.3265 13.1642 18.9652 14.9665 18.6057 16.7692C18.4623 17.4882 18.3241 18.2082 18.1746 18.9259C18.0884 19.3392 17.765 19.5775 17.3984 19.5183C17.0368 19.4598 16.8055 19.1686 16.826 18.7277Z" fill="#009DD9"/>
<path d="M28.1433 21.344C27.6963 21.3454 27.3558 20.9239 27.4925 20.4987C27.6449 20.0247 27.8221 19.5574 28.0147 19.0981C28.1573 18.7583 28.5363 18.6223 28.8688 18.7535C29.1892 18.8798 29.3817 19.2219 29.2731 19.5559C29.1191 20.0293 28.9406 20.4958 28.75 20.9559C28.6413 21.2185 28.4107 21.3432 28.1433 21.344Z" fill="#009DD9"/>
<path d="M18.6735 28.6235C18.6827 28.3396 18.8308 28.1233 19.118 28.0122C19.5338 27.8516 19.9503 27.6919 20.3713 27.5457C20.759 27.4111 21.1228 27.5817 21.2565 27.9424C21.3855 28.2907 21.2376 28.6511 20.8674 28.8051C20.4365 28.9845 19.9985 29.1512 19.5535 29.2913C19.0965 29.4352 18.6738 29.1118 18.6735 28.6235Z" fill="#009DD9"/>
<path d="M28.1481 11.4141C28.1423 11.0105 28.3541 10.7338 28.6639 10.6675C28.9898 10.5979 29.3343 10.7297 29.4237 11.0395C29.5763 11.5678 29.6942 12.1096 29.7763 12.6534C29.8256 12.98 29.5503 13.2605 29.2162 13.3236C28.9236 13.3788 28.5777 13.2208 28.4949 12.9267C28.3489 12.4068 28.251 11.8735 28.1481 11.4141Z" fill="#009DD9"/>
<path d="M27.5166 22.9921C27.5108 23.4071 26.5447 24.6988 26.2119 24.7863C25.9324 24.8597 25.6801 24.7987 25.4948 24.5685C25.3028 24.3301 25.2647 24.0511 25.4377 23.7992C25.7255 23.3801 26.0321 22.9721 26.3571 22.5813C26.5507 22.3486 26.8257 22.2988 27.1106 22.4265C27.3785 22.5466 27.5094 22.7625 27.5166 22.9921Z" fill="#009DD9"/>
<path d="M8.66463 28.564C8.61726 28.5495 8.4985 28.5318 8.39815 28.479C8.00336 28.2719 7.60772 28.065 7.22511 27.8366C6.8661 27.6222 6.76515 27.2328 6.95479 26.9019C7.14247 26.5745 7.5336 26.4679 7.89831 26.6588C8.29327 26.8655 8.68567 27.0779 9.07143 27.3013C9.35811 27.4674 9.47312 27.7678 9.3898 28.0639C9.30273 28.3732 9.05005 28.5659 8.66463 28.564Z" fill="#009DD9"/>
<path d="M29.965 15.8025C29.9365 16.1198 29.9127 16.4376 29.8785 16.7544C29.834 17.1672 29.5417 17.4219 29.1519 17.3975C28.7684 17.3736 28.5141 17.0807 28.5313 16.6568C28.5491 16.2218 28.5759 15.7867 28.6163 15.3533C28.6562 14.9241 28.9667 14.6605 29.3627 14.6944C29.738 14.7266 29.986 15.0304 29.9762 15.4513C29.9735 15.5681 29.9603 15.6846 29.9519 15.8012C29.9562 15.8017 29.9606 15.8022 29.965 15.8025Z" fill="#009DD9"/>
<path d="M23.0411 27.548C22.7077 27.5363 22.4964 27.3963 22.3848 27.1245C22.2784 26.8653 22.3048 26.5972 22.5172 26.4195C22.9238 26.0793 23.3489 25.7581 23.7878 25.4607C24.0547 25.2798 24.4148 25.3752 24.6207 25.6228C24.8217 25.8648 24.8599 26.2623 24.6208 26.4689C24.1892 26.8419 23.7138 27.1647 23.2502 27.4996C23.1878 27.5447 23.0881 27.5381 23.0411 27.548Z" fill="#009DD9"/>
<path d="M28.5441 8.64392C28.5519 9.06427 28.3777 9.31355 28.0879 9.41484C27.8063 9.51324 27.4891 9.43196 27.3296 9.16676C27.0673 8.73048 26.8245 8.28117 26.5985 7.82495C26.4661 7.55762 26.5705 7.23524 26.7998 7.05029C27.0325 6.86269 27.3863 6.81762 27.595 7.02464C28.0785 7.50394 28.3134 8.13387 28.5441 8.64392Z" fill="#009DD9"/>
<path d="M11.3752 28.1664C11.8281 28.269 12.372 28.3683 12.9005 28.5211C13.2042 28.6088 13.3429 28.959 13.2737 29.2817C13.2073 29.5913 12.9234 29.8457 12.6024 29.7955C12.0692 29.7123 11.538 29.5978 11.0191 29.4502C10.7032 29.3603 10.5587 29.0186 10.6278 28.7028C10.6993 28.3759 10.9525 28.17 11.3752 28.1664Z" fill="#009DD9"/>
<path d="M15.815 29.9733C15.6769 29.9825 15.539 29.9983 15.4008 29.9999C14.9987 30.0047 14.7027 29.756 14.6697 29.3923C14.6345 29.0039 14.8798 28.6885 15.2906 28.6457C15.7557 28.5972 16.2239 28.5686 16.6914 28.5566C17.0656 28.547 17.3432 28.8263 17.3605 29.1862C17.378 29.5488 17.1379 29.8483 16.7692 29.8967C16.4531 29.9382 16.134 29.9574 15.8162 29.9865C15.8158 29.9821 15.8154 29.9777 15.815 29.9733Z" fill="#009DD9"/>
</g>
<defs>
<clipPath id="clip0_29_986">
<rect width="29.9765" height="30" fill="white"/>
</clipPath>
</defs>
</svg>
