<svg width="34" height="32" viewBox="0 0 34 32" fill="none" xmlns="http://www.w3.org/2000/svg">
<g clip-path="url(#clip0_29_1138)">
<path d="M31.0296 10.5475C29.8723 10.5043 28.9799 10.0048 28.4323 8.98494C27.8998 7.99295 27.9066 6.97376 28.5394 6.02856C29.1909 5.05548 29.8948 4.11725 30.59 3.17412C30.8407 2.83401 31.1983 2.83135 31.4493 3.17164C32.1577 4.13227 32.8818 5.08427 33.5343 6.08248C34.1463 7.01897 34.1409 8.03136 33.6015 9.00917C33.0483 10.0119 32.168 10.506 31.0296 10.5475ZM31.0267 4.25985C30.5057 4.97684 30.0057 5.66231 29.5094 6.35043C29.4193 6.47536 29.3304 6.60485 29.2655 6.74372C28.9371 7.44561 29.0027 8.10876 29.4593 8.74122C30.0669 9.58256 31.2036 9.80189 32.0799 9.23439C32.9479 8.6722 33.2633 7.49762 32.7147 6.64426C32.1961 5.83726 31.6081 5.07506 31.0267 4.25985Z" fill="#F35150"/>
<path d="M13.3588 15.0936C13.5231 15.262 13.7198 15.3504 13.9585 15.2437C14.2843 15.0979 14.3461 14.7051 14.076 14.4166C13.8102 14.1325 13.5306 13.8617 13.2929 13.6217L12.6147 14.2975C12.8468 14.5472 13.0974 14.8256 13.3588 15.0936Z" fill="#F35150"/>
<path d="M15.5357 12.9116C15.6601 13.0228 15.8739 13.1122 16.032 13.0922C16.4298 13.042 16.5453 12.5653 16.2493 12.2436C15.9863 11.9577 15.7059 11.6884 15.4713 11.451L14.7942 12.1257C15.0246 12.3761 15.2606 12.6656 15.5357 12.9116Z" fill="#F35150"/>
<path d="M17.7046 10.7467C17.9565 10.9907 18.2324 11.0032 18.4397 10.8054C18.6567 10.5982 18.6486 10.2994 18.3981 10.0463C18.1339 9.7793 17.8544 9.52745 17.6224 9.30762L16.9559 9.97176C17.191 10.2173 17.4398 10.4902 17.7046 10.7467Z" fill="#F35150"/>
<path d="M8.98414 19.4133C9.26071 19.6865 9.5557 19.703 9.76674 19.4783C9.96916 19.2628 9.94618 18.9784 9.68594 18.7185C9.42364 18.4565 9.14772 18.208 8.92242 17.9958C9.44703 17.4696 9.92013 16.9952 10.4546 16.4592C10.6194 16.6489 10.8046 16.8677 10.9964 17.0806C11.0774 17.1706 11.1678 17.2538 11.262 17.33C11.4821 17.5079 11.7107 17.5081 11.9219 17.321C12.1262 17.1399 12.1501 16.8515 11.9418 16.6406C11.6505 16.3457 11.324 16.0855 11.0653 15.857C11.5795 15.3391 12.0207 14.8946 12.4924 14.4194L8.25329 18.6435C8.48126 18.8847 8.72473 19.1571 8.98414 19.4133Z" fill="#F35150"/>
<path d="M31.0151 0.161517C30.8306 -0.0288665 30.6074 -0.0529237 30.3849 0.0998811C30.2858 0.167988 30.2006 0.257829 30.1148 0.343606C28.5028 1.95411 26.8897 3.56354 25.2836 5.17994C25.1255 5.33896 25.0058 5.3884 24.775 5.30006C24.1251 5.05135 23.5128 5.16841 22.9742 5.61131C22.787 5.76536 22.6311 5.95798 22.4415 6.10838C22.368 6.16661 22.212 6.20884 22.142 6.17035C20.9622 5.52196 19.6236 5.74935 18.5789 6.79982C14.1564 11.2471 9.71464 15.6751 5.28131 20.1115C4.55885 20.8346 4.56415 21.5857 5.28728 22.312C5.54843 22.5743 5.81048 22.8357 6.03629 23.0617C4.95562 24.1429 3.91013 25.1889 2.8614 26.2381C2.67326 26.065 2.47084 25.8601 2.24935 25.6784C1.71835 25.2429 0.944454 25.2594 0.471936 25.7538C0.267616 25.9674 0.154547 26.2685 0 26.5298C0 26.7068 0 26.8838 0 27.0608C0.118129 27.2684 0.198845 27.5127 0.360361 27.6779C1.38852 28.7299 2.42173 29.7775 3.47992 30.7991C4.01026 31.3111 4.8555 31.2585 5.36982 30.744C5.89833 30.2151 5.92911 29.4346 5.4376 28.858C5.26696 28.6579 5.08172 28.4701 4.8905 28.263C4.97304 28.1737 5.04422 28.092 5.12046 28.0152C5.51806 27.615 5.92148 27.2205 6.31386 26.8153C6.56688 26.554 6.57633 26.2647 6.35957 26.0545C6.15649 25.8575 5.87278 25.8755 5.62159 26.1062C5.51574 26.2034 5.41669 26.3079 5.31532 26.4099C4.93605 26.7912 4.5571 27.1728 4.20703 27.5252C4.0003 27.3241 3.82825 27.1567 3.68225 27.0147C4.72443 25.9725 5.77614 24.9207 6.76771 23.9291C6.93056 24.0697 7.11878 24.2323 7.31373 24.4006C7.24305 24.4749 7.17561 24.5471 7.10675 24.6179C7.0374 24.6893 6.96307 24.7562 6.89737 24.8308C6.67928 25.0782 6.66518 25.3399 6.85507 25.5455C7.05134 25.758 7.34857 25.7647 7.59138 25.5328C7.74178 25.3891 7.85726 25.2089 8.03885 24.9819C8.37341 25.3443 8.62642 25.6361 8.89827 25.9093C9.5771 26.5914 10.3286 26.5876 11.0166 25.9007C14.3119 22.6101 17.6054 19.3178 20.8994 16.0259C20.9541 15.9713 21.0112 15.9179 21.059 15.8574C21.2374 15.6318 21.2345 15.3411 21.0408 15.1691C20.8292 14.9813 20.599 14.9848 20.3778 15.1546C20.282 15.2282 20.1999 15.3201 20.1138 15.406C17.321 18.1978 14.5282 20.9897 11.7371 23.7833C11.6439 23.8766 11.569 23.9881 11.507 24.0647C10.0237 22.5845 8.57831 21.1422 7.15545 19.7222C7.50013 19.3835 7.86049 19.0293 8.25337 18.6432L12.4925 14.4192C12.5329 14.3784 12.5731 14.3379 12.614 14.2967C12.6143 14.297 12.6145 14.2972 12.6147 14.2974L13.2929 13.6215C13.2905 13.619 13.2877 13.6163 13.2853 13.6139C13.7908 13.109 14.2648 12.6356 14.7853 12.1156C14.7883 12.1189 14.7913 12.1224 14.7943 12.1256L15.4714 11.4509C15.4687 11.4482 15.4656 11.4452 15.463 11.4424C15.9704 10.9333 16.4436 10.4585 16.9428 9.95778C16.9471 9.96226 16.9516 9.96716 16.9559 9.97172L17.6225 9.30757C17.9626 8.9697 18.2709 8.6635 18.5354 8.4007C19.9395 9.81004 21.3718 11.2477 22.8247 12.7062C22.4564 13.0708 22.0538 13.4642 21.6573 13.8638C21.3827 14.1404 21.3501 14.435 21.5578 14.6503C21.7679 14.8679 22.0744 14.8462 22.3445 14.5782C23.0747 13.8536 23.8046 13.1285 24.5255 12.3947C25.1133 11.7963 25.4236 11.0674 25.3363 10.232C25.2871 9.76093 25.0987 9.30451 24.9629 8.8047C25.1011 8.65803 25.2835 8.46582 25.4643 8.2722C26.0022 7.69649 26.1235 7.03574 25.8254 6.31353C25.7377 6.101 25.8498 6.01464 25.9663 5.89825C27.5858 4.2797 29.2047 2.6604 30.8229 1.04027C30.9084 0.954576 30.9982 0.868551 31.0634 0.768091C31.199 0.559042 31.1899 0.341864 31.0151 0.161517ZM4.6423 29.4583C4.81982 29.6366 4.86669 29.8508 4.65922 30.0378C4.46403 30.2136 4.25539 30.1862 4.07115 30.0019C3.09517 29.0266 2.11521 28.0551 1.15218 27.0672C1.05968 26.9723 1.02069 26.76 1.05437 26.6269C1.08365 26.5112 1.25098 26.4305 1.37043 26.3225C1.51453 26.4115 1.62992 26.4567 1.71088 26.5369C2.69142 27.5071 3.66889 28.4808 4.6423 29.4583ZM10.6822 24.8188C10.6837 24.817 10.6848 24.8149 10.6855 24.8135C10.6862 24.8116 10.6861 24.812 10.6855 24.8135C10.6841 24.8172 10.6802 24.8293 10.6729 24.86C10.668 24.8551 10.6631 24.8502 10.6582 24.8453C9.96558 25.6125 9.93431 25.5635 9.27854 24.8991C8.20683 23.8132 7.12326 22.7392 6.045 21.6599C5.65113 21.2656 5.65328 21.1597 6.03778 20.7645C6.13733 20.6622 6.21664 20.5402 6.27927 20.4603C7.76103 21.9442 9.19592 23.3811 10.6582 24.8454C10.6662 24.8364 10.6739 24.8279 10.6822 24.8188ZM23.6137 11.8891C22.1691 10.4471 20.7254 9.00603 19.279 7.56235C19.9922 6.62976 21.1825 6.5298 22.0524 7.36508C22.6177 7.90778 23.1715 8.463 23.7166 9.02602C24.6277 9.96707 24.5779 11.0309 23.6137 11.8891ZM24.8166 7.49001C24.6495 7.70628 24.4435 7.89226 24.263 8.08315C23.8515 7.66662 23.4731 7.28353 23.0783 6.88385C23.2575 6.71661 23.4458 6.51262 23.6625 6.34514C24.0052 6.08034 24.446 6.12638 24.745 6.43075C25.0243 6.71512 25.0674 7.16532 24.8166 7.49001Z" fill="#009DD9"/>
</g>
<defs>
<clipPath id="clip0_29_1138">
<rect width="34" height="31.1575" fill="white"/>
</clipPath>
</defs>
</svg>
