
<svg width="0" height="0" class="hidden">
	<symbol viewBox="0 0 530 530" xmlns="http://www.w3.org/2000/svg" shape-rendering="geometricPrecision" fill-rule="evenodd" clip-rule="evenodd" id="search">
		<path fill-rule="nonzero" d="M518 460L409 351c26-38 39-80 39-127a220 220 0 00-65-159 224 224 0 00-246-47A224 224 0 000 224a220 220 0 0066 159 224 224 0 00285 26l109 109c8 8 18 12 29 12s21-4 29-12 12-18 12-29-4-21-12-29zM325 325c-28 28-61 42-101 42-39 0-73-14-101-42-27-28-41-62-41-101s14-73 41-101c28-27 62-41 101-41 40 0 73 14 101 41 28 28 42 62 42 101s-14 73-42 101z"/>
	</symbol>

	<symbol xmlns="http://www.w3.org/2000/svg" viewBox="0 0 14 15" id="search-thin"><path d="m13.83 13-3.37-3.36a5.9 5.9 0 1 0-.83.83L13 13.83a.58.58 0 1 0 .83-.82ZM5.9 10.64a4.73 4.73 0 1 1 0-9.47 4.73 4.73 0 0 1 0 9.47Z"/></symbol>

	<symbol viewBox="0 0 535 312" xmlns="http://www.w3.org/2000/svg" shape-rendering="geometricPrecision" fill-rule="evenodd" clip-rule="evenodd" id="vk">
		<path fill-rule="nonzero" d="M455 198l33 30c8 8 20 19 32 35 19 27 21 44-8 47-42-2-100 4-111-10-43-45-75-91-88-32l-3 26c0 9-1 15-21 17h-30a169 169 0 01-112-43 567 567 0 01-96-132C33 102 17 69 3 39v-3c-5-14-4-22 10-21 71 0 94-12 103 20 54 125 102 175 92 26-5-39-17-35-21-36-32 0 10-25 15-23 44 0 109-12 111 27 0 50-24 226 75 38l11-27c7-16 8-27 25-25h84c2 1 41-8 17 37-34 75-106 111-70 146z"/>
	</symbol>

	<symbol xmlns="http://www.w3.org/2000/svg" viewBox="0 0 24 24" id="phone"><path d="M16.72 21c-.33-.06-.67-.1-1-.17-.9-.19-1.74-.54-2.55-.94a20.1 20.1 0 0 1-7.81-6.88 15.67 15.67 0 0 1-2.03-4.14 5.35 5.35 0 0 1-.25-2.66c.07-.43.28-.82.57-1.13.53-.54 1.06-1.07 1.6-1.59.68-.65 1.44-.65 2.12 0 .79.77 1.56 1.56 2.33 2.34.35.35.57.76.5 1.27a1.7 1.7 0 0 1-.55.95L8.33 9.36c-.23.23-.23.3-.1.58.5 1.13 1.27 2.06 2.09 2.95.82.9 1.72 1.69 2.75 2.33.35.22.72.4 1.09.6.16.09.3.02.41-.1l1.36-1.37c.14-.14.3-.26.45-.36a1.3 1.3 0 0 1 1.57.12l.28.24 2.2 2.2c.18.19.33.4.44.63.23.5.14.98-.21 1.38-.58.63-1.18 1.23-1.8 1.83-.33.32-.76.49-1.23.56l-.17.05h-.74Z" fill="#fff" stroke="#009CD6"/></symbol>

	<symbol xmlns="http://www.w3.org/2000/svg" viewBox="0 0 24 24" id="location"><path d="M11.26 3h.93l.48.07a6.78 6.78 0 0 1 5.79 6.08 6.58 6.58 0 0 1-1.16 4.64c-1.56 2.2-3.17 4.35-4.75 6.51l-.5.7h-.61l-.1-.15-4.9-6.7a6.97 6.97 0 0 1-.28-8.12A6.63 6.63 0 0 1 10.7 3.1l.57-.1Zm2.72 6.9c0-1.25-1-2.29-2.22-2.3a2.27 2.27 0 0 0-2.25 2.27c-.01 1.26 1 2.3 2.23 2.3a2.27 2.27 0 0 0 2.24-2.27Z" fill="#fff" stroke="#009CD6"/></symbol>

	<symbol viewBox="0 0 370 634" xmlns="http://www.w3.org/2000/svg" shape-rendering="geometricPrecision" fill-rule="evenodd" clip-rule="evenodd" id="ok">
		<path fill-rule="nonzero" d="M365 378c-28 37-86 62-149 68l116 120s27 26-1 55c-30 29-53 1-53 1l-92-94-92 94s-23 28-53-1c-27-29 0-55 0-55l115-120c-59-5-116-27-152-70-17-32 26-81 71-40 0 0 104 76 222 0 64-50 83 27 68 42zm-150 68h-1v1l1-1zm-57 1v-1 1zm28-127c-86 0-156-72-156-160S100 0 186 0s156 72 156 160-70 160-156 160zm0-239c-44 0-77 34-77 79a77 77 0 10154 0c0-45-33-79-77-79z"/>
	</symbol>

	<symbol viewBox="0 0 456 456" xmlns="http://www.w3.org/2000/svg" shape-rendering="geometricPrecision" fill-rule="evenodd" clip-rule="evenodd" id="insta">
		<path fill-rule="nonzero" d="M59 0h338c33 0 59 24 59 58v339c0 35-26 59-59 59H59c-33 0-59-24-59-59V58C0 24 26 0 59 0zm273 51c-11 0-20 9-20 20v49c0 12 9 21 20 21h52c11 0 20-9 20-21V71c0-11-9-20-20-20h-52zm72 142h-40c4 12 6 25 6 39 0 76-63 137-142 137-78 0-141-61-141-137 0-14 2-27 6-39H51v192c0 10 8 19 18 19h317c10 0 18-9 18-19V193zm-176-55c-50 0-91 40-91 89s41 89 91 89c51 0 92-40 92-89s-41-89-92-89z"/>
	</symbol>

	<symbol viewBox="0 0 25 25" xmlns="http://www.w3.org/2000/svg" shape-rendering="geometricPrecision" fill-rule="evenodd" clip-rule="evenodd" id="fb">
		<path d="M22.675 0h-21.35c-.732 0-1.325.593-1.325 1.325v21.351c0 .731.593 1.324 1.325 1.324h11.495v-9.294h-3.128v-3.622h3.128v-2.671c0-3.1 1.893-4.788 4.659-4.788 1.325 0 2.463.099 2.795.143v3.24l-1.918.001c-1.504 0-1.795.715-1.795 1.763v2.313h3.587l-.467 3.622h-3.12v9.293h6.116c.73 0 1.323-.593 1.323-1.325v-21.35c0-.732-.593-1.325-1.325-1.325z"/>
	</symbol>

	<symbol viewBox="0 0 517 419" xmlns="http://www.w3.org/2000/svg" shape-rendering="geometricPrecision" fill-rule="evenodd" clip-rule="evenodd" id="twitter">
		<path fill-rule="nonzero" d="M503 8c-21 12-43 21-68 25a106 106 0 00-180 97C166 125 88 83 36 19a106 106 0 0033 141c-18 0-34-5-48-13v2c0 51 36 94 85 103a108 108 0 01-48 2c13 42 53 73 99 74A213 213 0 010 371c47 30 103 48 163 48 195 0 301-161 301-301v-14c21-15 39-33 53-54-19 8-39 14-61 16 22-13 39-34 47-58z"/>
	</symbol>

	<symbol viewBox="0 0 683 478" xmlns="http://www.w3.org/2000/svg" shape-rendering="geometricPrecision" fill-rule="evenodd" clip-rule="evenodd" id="youtube">
		<path fill-rule="nonzero" d="M671 77c-8-37-38-64-74-68-84-9-170-9-255-9-86 0-171 0-256 9-36 4-66 31-74 68C0 129 0 186 0 239s0 110 12 162c8 37 38 63 74 67 84 10 170 10 255 10 86 0 172 0 256-10 36-4 66-30 74-67 12-52 12-109 12-162s0-110-12-162zM253 345V119l217 113-217 113z"/>
	</symbol>

	<symbol viewBox="0 0 493 290" xmlns="http://www.w3.org/2000/svg" shape-rendering="geometricPrecision" fill-rule="evenodd" clip-rule="evenodd" id="arrow-down">
		<path fill-rule="nonzero" d="M246 192L62 8a27 27 0 00-38 0L8 24a27 27 0 000 38l219 219a27 27 0 0038 0L484 62a27 27 0 000-38L468 8a28 28 0 00-38 0L246 192z"/>
	</symbol>

	<symbol viewBox="0 0 290 492" xmlns="http://www.w3.org/2000/svg" shape-rendering="geometricPrecision" fill-rule="evenodd" clip-rule="evenodd" id="arrow-left">
		<path fill-rule="nonzero" d="M97 246L281 62a27 27 0 000-38L265 8a27 27 0 00-38 0L8 227a27 27 0 000 38l219 219a27 27 0 0038 0l16-16c10-10 10-28 0-38L97 246z"/>
	</symbol>

	<symbol viewBox="0 0 290 492" xmlns="http://www.w3.org/2000/svg" shape-rendering="geometricPrecision" fill-rule="evenodd" clip-rule="evenodd" id="arrow-right">
		<path fill-rule="nonzero" d="M192 246L8 62a27 27 0 010-38L24 8a27 27 0 0138 0l219 219a27 27 0 010 38L62 484a27 27 0 01-38 0L8 468a27 27 0 010-38l184-184z"/>
	</symbol>

	<symbol xmlns="http://www.w3.org/2000/svg" viewBox="0 0 20 20" id="info"><path d="M16.1 17H1.41a.8.8 0 0 0-.09-.03A1.64 1.64 0 0 1 0 15.4V4.6c0-.52.23-.94.64-1.27.23-.18.5-.27.78-.34H16.1l.03.02c.73.1 1.41.77 1.4 1.73-.02 1.07 0 2.13-.01 3.2 0 .1.04.17.12.23.32.24.63.5.95.73l1.4 1.06v.06a11449.38 11449.38 0 0 1-2.37 1.83c-.08.06-.1.11-.1.2v3.29c0 .57-.24 1.04-.71 1.35-.21.14-.47.2-.7.3Zm2.1-7-.11-.09-1.56-1.2a.25.25 0 0 1-.11-.22V4.7c0-.4-.22-.62-.61-.62H1.7c-.4 0-.62.22-.62.62v10.58c0 .4.22.62.62.62h14.1c.4 0 .6-.22.6-.62a3624.54 3624.54 0 0 0 .03-3.88.23.23 0 0 1 .08-.09l1.68-1.31Z" fill="#009CD6"/><path d="M6.68 10.03 6 8.63c.63-.34 1.25-.66 2-.43a1.9 1.9 0 0 1 1.3 2.26l-.56 2.23c-.04.16-.06.31.09.43.14.12.29.08.43 0l.45-.21.67 1.37c-1.52 1.08-2.97.16-3.19-1.02-.05-.27-.05-.54.01-.8.17-.77.37-1.53.57-2.3.04-.15.04-.3-.1-.4-.13-.1-.27-.09-.4-.02l-.6.3Z" fill="#F35150"/><path d="M9.62 5.98a.98.98 0 1 1-1.95 0 .98.98 0 0 1 1.95 0Z" fill="#F35150"/></symbol>

	<symbol xmlns="http://www.w3.org/2000/svg" viewBox="0 0 20 20" id="card"><path d="M17.86 2.86H2.14C.96 2.86 0 3.82 0 5v10c0 1.18.96 2.14 2.14 2.14h15.72c1.18 0 2.14-.96 2.14-2.14V5c0-1.18-.96-2.14-2.14-2.14ZM18.57 15c0 .4-.32.71-.71.71H2.14a.71.71 0 0 1-.71-.71v-4.29h17.14V15Zm0-5.71H1.43V7.86h17.14v1.43Zm0-2.86H1.43V5c0-.4.32-.71.71-.71h15.72c.4 0 .71.32.71.71v1.43Z" fill="#009CD6"/><path d="M16.43 12.14h-2.86a.71.71 0 1 0 0 1.43h2.86a.71.71 0 1 0 0-1.43Z" fill="#F35150"/></symbol>

	<symbol xmlns="http://www.w3.org/2000/svg" viewBox="0 0 18 18" id="calendar"><path d="M13.57 8.09a.7.7 0 1 0 0-1.41.7.7 0 0 0 0 1.4Z" /><path d="M15.19 1.4h-.92V.7a.7.7 0 1 0-1.4 0v.7h-3.2V.7a.7.7 0 1 0-1.4 0v.7H5.1V.7a.7.7 0 1 0-1.4 0v.7H2.8A2.82 2.82 0 0 0 0 4.23v10.97A2.82 2.82 0 0 0 2.81 18H8.2a.7.7 0 1 0 0-1.4H2.81a1.4 1.4 0 0 1-1.4-1.41V4.22c0-.78.63-1.4 1.4-1.4h.88v.7a.7.7 0 1 0 1.4 0v-.7h3.17v.7a.7.7 0 1 0 1.4 0v-.7h3.2v.7a.7.7 0 1 0 1.41 0v-.7h.92c.77 0 1.4.62 1.4 1.4v4a.7.7 0 1 0 1.41 0v-4a2.82 2.82 0 0 0-2.81-2.81Z"/><path d="M13.75 9.5a4.26 4.26 0 1 0 0 8.51 4.26 4.26 0 0 0 0-8.52Zm0 7.1a2.85 2.85 0 1 1 0-5.7 2.85 2.85 0 0 1 0 5.7Z"/><path d="M14.77 13.04h-.32v-.74a.7.7 0 0 0-1.4 0v1.45c0 .38.3.7.7.7h1.02a.7.7 0 1 0 0-1.4Z"/><path d="M10.51 8.09a.7.7 0 1 0 0-1.41.7.7 0 0 0 0 1.4Z"/><path d="M7.45 11.14a.7.7 0 1 0 0-1.4.7.7 0 0 0 0 1.4Z"/><path d="M4.4 8.09a.7.7 0 1 0 0-1.41.7.7 0 0 0 0 1.4Z"/><path d="M4.4 11.14a.7.7 0 1 0 0-1.4.7.7 0 0 0 0 1.4Z"/><path d="M4.4 14.2a.7.7 0 1 0 0-1.4.7.7 0 0 0 0 1.4Z"/><path d="M7.45 14.2a.7.7 0 1 0 0-1.4.7.7 0 0 0 0 1.4Z"/><path d="M7.45 8.09a.7.7 0 1 0 0-1.41.7.7 0 0 0 0 1.4Z"/></symbol>
</svg>